<svg width="14" height="14" viewBox="0 0 14 14" fill="none" xmlns="http://www.w3.org/2000/svg">
<path d="M13.4157 9.64503L12.1656 8.39494C11.7929 8.02528 11.29 7.81688 10.7651 7.81465C10.2402 7.81241 9.73547 8.01653 9.3597 8.38301C9.1592 8.58466 8.89468 8.71012 8.61166 8.73781C8.32864 8.7655 8.04482 8.69369 7.80903 8.53472C6.8784 7.91363 6.07892 7.11568 5.45603 6.18625C5.29986 5.94783 5.23065 5.66287 5.26004 5.37937C5.28943 5.09588 5.41564 4.83118 5.61741 4.62988C5.98055 4.25375 6.18204 3.75042 6.17875 3.2276C6.17546 2.70478 5.96765 2.20403 5.59979 1.8325L4.34971 0.582409C3.97545 0.20943 3.46861 0 2.94024 0C2.41186 0 1.90503 0.20943 1.53077 0.582409L1.17108 0.942664C-0.704045 2.81781 -0.563694 6.76015 3.33771 10.6593C5.69014 13.0123 8.05791 13.9976 9.97793 13.9976C10.5431 14.0165 11.1064 13.9226 11.635 13.7215C12.1635 13.5205 12.6468 13.2162 13.0565 12.8265L13.4168 12.4663C13.7905 12.0918 14.0002 11.5844 14 11.0554C13.9998 10.5264 13.7896 10.0192 13.4157 9.64503ZM12.6122 11.6628L12.2519 12.0231C10.7746 13.5004 7.51356 13.2305 4.14003 9.85641C0.76651 6.48229 0.496037 3.21897 1.97341 1.74159L2.33082 1.3819C2.49174 1.22156 2.70966 1.13153 2.93683 1.13153C3.164 1.13153 3.38191 1.22156 3.54283 1.3819L4.79292 2.632C4.95092 2.79079 5.0406 3.00505 5.04283 3.22905C5.04506 3.45305 4.95966 3.66904 4.80485 3.83095C4.42089 4.21736 4.18138 4.72399 4.12645 5.26595C4.07152 5.80791 4.20451 6.35229 4.50313 6.80788C5.21087 7.867 6.12099 8.77578 7.18115 9.48195C7.63537 9.78062 8.17832 9.91439 8.7193 9.86092C9.26028 9.80745 9.76654 9.56998 10.1535 9.18818C10.3151 9.03154 10.5317 8.94456 10.7568 8.94594C10.9818 8.94732 11.1973 9.03695 11.357 9.19557L12.6071 10.4457C12.6877 10.5251 12.7517 10.6196 12.7956 10.7239C12.8395 10.8281 12.8623 10.94 12.8628 11.0532C12.8633 11.1663 12.8414 11.2784 12.7984 11.383C12.7554 11.4876 12.6921 11.5827 12.6122 11.6628Z" fill="#B9B9B9"/>
</svg>
